<?xml version="1.0" standalone="no"?>
<!DOCTYPE svg PUBLIC "-//W3C//DTD SVG 20010904//EN"
 "http://www.w3.org/TR/2001/REC-SVG-20010904/DTD/svg10.dtd">
<svg version="1.0" xmlns="http://www.w3.org/2000/svg"
 width="300.000000pt" height="291.000000pt" viewBox="0 0 300.000000 291.000000"
 preserveAspectRatio="xMidYMid meet">
<metadata>
Created by potrace 1.10, written by Peter Selinger 2001-2011
</metadata>
<g transform="translate(0.000000,291.000000) scale(0.100000,-0.100000)"
fill="#0e1d44" stroke="none">
<path d="M718 2562 l-58 -3 0 -1140 c0 -627 4 -1138 8 -1135 13 8 98 152 188
316 92 169 158 246 236 280 49 21 73 23 348 30 333 9 393 18 527 80 234 109
402 327 457 592 69 336 -102 708 -404 876 -96 54 -197 81 -337 92 -121 10
-842 18 -965 12z m1298 -1249 c-6 -6 -110 70 -154 111 -39 37 -60 103 -63 196
-4 124 3 125 -153 -9 l-140 -120 -35 29 c-20 15 -90 71 -156 124 l-120 96 -6
-113 c-6 -125 -15 -152 -76 -207 -63 -59 -144 -122 -149 -118 -2 3 -3 211 -2
463 l3 458 258 -212 c142 -116 262 -211 267 -211 4 0 124 96 266 213 l259 214
3 -455 c1 -250 0 -457 -2 -459z"/>
</g>
</svg>
